<svg width="51" height="51" viewBox="0 0 51 51" fill="none" xmlns="http://www.w3.org/2000/svg">
<g filter="url(#filter0_d_288_59)">
<path d="M19.3477 0C16.009 0 13.9773 1.95313 9.02539 1.95313C8.45938 1.95313 8 2.39063 8 2.92969V23.4063C13.7572 23.6908 15.7909 21.4844 19.3477 21.4844C21.2542 21.4844 23.0849 22.6374 24.4746 23.8711V2.38542C23.0213 1.10417 21.2118 0 19.3477 0V0ZM20.373 16.6016H12.1699C11.6039 16.6016 11.1445 16.1641 11.1445 15.625C11.1445 15.0859 11.6039 14.6484 12.1699 14.6484H20.373C20.9391 14.6484 21.3984 15.0859 21.3984 15.625C21.3984 16.1641 20.9391 16.6016 20.373 16.6016ZM20.373 12.6953H12.1699C11.6039 12.6953 11.1445 12.2578 11.1445 11.7188C11.1445 11.1797 11.6039 10.7422 12.1699 10.7422H20.373C20.9391 10.7422 21.3984 11.1797 21.3984 11.7188C21.3984 12.2578 20.9391 12.6953 20.373 12.6953ZM20.373 8.78906H12.1699C11.6039 8.78906 11.1445 8.35156 11.1445 7.8125C11.1445 7.27344 11.6039 6.83594 12.1699 6.83594H20.373C20.9391 6.83594 21.3984 7.27344 21.3984 7.8125C21.3984 8.35156 20.9391 8.78906 20.373 8.78906ZM19.3477 23.4375C16.385 23.4375 13.9876 25.6517 8 25.3704V26.3672C8 26.9063 8.45938 27.3438 9.02539 27.3438H24.4746V26.7044C23.5333 25.6035 21.2822 23.4375 19.3477 23.4375ZM31.6523 23.4375C29.7103 23.4375 27.4633 25.6029 26.5254 26.7038V27.3438H41.9746C42.5406 27.3438 43 26.9063 43 26.3672V25.3672C36.9934 25.6475 34.6174 23.4375 31.6523 23.4375ZM41.9746 1.95313C37.022 1.95313 34.9924 0 31.6523 0C29.7889 0 27.9801 1.10286 26.5254 2.38542V23.8711C27.9155 22.6373 29.746 21.4844 31.6523 21.4844C35.2193 21.4844 37.2817 23.7064 43 23.4128V2.92969C43 2.39063 42.5406 1.95313 41.9746 1.95313ZM38.8301 16.6016H30.627C30.0609 16.6016 29.6016 16.1641 29.6016 15.625C29.6016 15.0859 30.0609 14.6484 30.627 14.6484H38.8301C39.3961 14.6484 39.8555 15.0859 39.8555 15.625C39.8555 16.1641 39.3961 16.6016 38.8301 16.6016ZM38.8301 12.6953H30.627C30.0609 12.6953 29.6016 12.2578 29.6016 11.7188C29.6016 11.1797 30.0609 10.7422 30.627 10.7422H38.8301C39.3961 10.7422 39.8555 11.1797 39.8555 11.7188C39.8555 12.2578 39.3961 12.6953 38.8301 12.6953ZM38.8301 8.78906H30.627C30.0609 8.78906 29.6016 8.35156 29.6016 7.8125C29.6016 7.27344 30.0609 6.83594 30.627 6.83594H38.8301C39.3961 6.83594 39.8555 7.27344 39.8555 7.8125C39.8555 8.35156 39.3961 8.78906 38.8301 8.78906Z" fill="#E5E5E5"/>
<path d="M9.29 40L7.94 38.05H7.86H6.45V40H4.83V33H7.86C8.48 33 9.01667 33.1033 9.47 33.31C9.93 33.5167 10.2833 33.81 10.53 34.19C10.7767 34.57 10.9 35.02 10.9 35.54C10.9 36.06 10.7733 36.51 10.52 36.89C10.2733 37.2633 9.92 37.55 9.46 37.75L11.03 40H9.29ZM9.26 35.54C9.26 35.1467 9.13333 34.8467 8.88 34.64C8.62667 34.4267 8.25667 34.32 7.77 34.32H6.45V36.76H7.77C8.25667 36.76 8.62667 36.6533 8.88 36.44C9.13333 36.2267 9.26 35.9267 9.26 35.54ZM17.3435 37.33C17.3435 37.35 17.3335 37.49 17.3135 37.75H13.2435C13.3168 38.0833 13.4902 38.3467 13.7635 38.54C14.0368 38.7333 14.3768 38.83 14.7835 38.83C15.0635 38.83 15.3102 38.79 15.5235 38.71C15.7435 38.6233 15.9468 38.49 16.1335 38.31L16.9635 39.21C16.4568 39.79 15.7168 40.08 14.7435 40.08C14.1368 40.08 13.6002 39.9633 13.1335 39.73C12.6668 39.49 12.3068 39.16 12.0535 38.74C11.8002 38.32 11.6735 37.8433 11.6735 37.31C11.6735 36.7833 11.7968 36.31 12.0435 35.89C12.2968 35.4633 12.6402 35.1333 13.0735 34.9C13.5135 34.66 14.0035 34.54 14.5435 34.54C15.0702 34.54 15.5468 34.6533 15.9735 34.88C16.4002 35.1067 16.7335 35.4333 16.9735 35.86C17.2202 36.28 17.3435 36.77 17.3435 37.33ZM14.5535 35.72C14.2002 35.72 13.9035 35.82 13.6635 36.02C13.4235 36.22 13.2768 36.4933 13.2235 36.84H15.8735C15.8202 36.5 15.6735 36.23 15.4335 36.03C15.1935 35.8233 14.9002 35.72 14.5535 35.72ZM20.4056 34.54C21.239 34.54 21.879 34.74 22.3256 35.14C22.7723 35.5333 22.9956 36.13 22.9956 36.93V40H21.5356V39.33C21.2423 39.83 20.6956 40.08 19.8956 40.08C19.4823 40.08 19.1223 40.01 18.8156 39.87C18.5156 39.73 18.2856 39.5367 18.1256 39.29C17.9656 39.0433 17.8856 38.7633 17.8856 38.45C17.8856 37.95 18.0723 37.5567 18.4456 37.27C18.8256 36.9833 19.409 36.84 20.1956 36.84H21.4356C21.4356 36.5 21.3323 36.24 21.1256 36.06C20.919 35.8733 20.609 35.78 20.1956 35.78C19.909 35.78 19.6256 35.8267 19.3456 35.92C19.0723 36.0067 18.839 36.1267 18.6456 36.28L18.0856 35.19C18.379 34.9833 18.729 34.8233 19.1356 34.71C19.549 34.5967 19.9723 34.54 20.4056 34.54ZM20.2856 39.03C20.5523 39.03 20.789 38.97 20.9956 38.85C21.2023 38.7233 21.349 38.54 21.4356 38.3V37.75H20.3656C19.7256 37.75 19.4056 37.96 19.4056 38.38C19.4056 38.58 19.4823 38.74 19.6356 38.86C19.7956 38.9733 20.0123 39.03 20.2856 39.03ZM29.9461 32.58V40H28.4561V39.38C28.0694 39.8467 27.5094 40.08 26.7761 40.08C26.2694 40.08 25.8094 39.9667 25.3961 39.74C24.9894 39.5133 24.6694 39.19 24.4361 38.77C24.2028 38.35 24.0861 37.8633 24.0861 37.31C24.0861 36.7567 24.2028 36.27 24.4361 35.85C24.6694 35.43 24.9894 35.1067 25.3961 34.88C25.8094 34.6533 26.2694 34.54 26.7761 34.54C27.4628 34.54 27.9994 34.7567 28.3861 35.19V32.58H29.9461ZM27.0461 38.8C27.4394 38.8 27.7661 38.6667 28.0261 38.4C28.2861 38.1267 28.4161 37.7633 28.4161 37.31C28.4161 36.8567 28.2861 36.4967 28.0261 36.23C27.7661 35.9567 27.4394 35.82 27.0461 35.82C26.6461 35.82 26.3161 35.9567 26.0561 36.23C25.7961 36.4967 25.6661 36.8567 25.6661 37.31C25.6661 37.7633 25.7961 38.1267 26.0561 38.4C26.3161 38.6667 26.6461 38.8 27.0461 38.8ZM31.3899 34.62H32.9499V40H31.3899V34.62ZM32.1699 33.87C31.8833 33.87 31.6499 33.7867 31.4699 33.62C31.2899 33.4533 31.1999 33.2467 31.1999 33C31.1999 32.7533 31.2899 32.5467 31.4699 32.38C31.6499 32.2133 31.8833 32.13 32.1699 32.13C32.4566 32.13 32.6899 32.21 32.8699 32.37C33.0499 32.53 33.1399 32.73 33.1399 32.97C33.1399 33.23 33.0499 33.4467 32.8699 33.62C32.6899 33.7867 32.4566 33.87 32.1699 33.87ZM37.6677 34.54C38.3344 34.54 38.8711 34.74 39.2777 35.14C39.6911 35.54 39.8977 36.1333 39.8977 36.92V40H38.3377V37.16C38.3377 36.7333 38.2444 36.4167 38.0577 36.21C37.8711 35.9967 37.6011 35.89 37.2477 35.89C36.8544 35.89 36.5411 36.0133 36.3077 36.26C36.0744 36.5 35.9577 36.86 35.9577 37.34V40H34.3977V34.62H35.8877V35.25C36.0944 35.0233 36.3511 34.85 36.6577 34.73C36.9644 34.6033 37.3011 34.54 37.6677 34.54ZM46.9204 34.62V39.1C46.9204 40.0867 46.6637 40.82 46.1504 41.3C45.6371 41.78 44.8871 42.02 43.9004 42.02C43.3804 42.02 42.8871 41.9567 42.4204 41.83C41.9537 41.7033 41.5671 41.52 41.2604 41.28L41.8804 40.16C42.1071 40.3467 42.3937 40.4933 42.7404 40.6C43.0871 40.7133 43.4337 40.77 43.7804 40.77C44.3204 40.77 44.7171 40.6467 44.9704 40.4C45.2304 40.16 45.3604 39.7933 45.3604 39.3V39.07C44.9537 39.5167 44.3871 39.74 43.6604 39.74C43.1671 39.74 42.7137 39.6333 42.3004 39.42C41.8937 39.2 41.5704 38.8933 41.3304 38.5C41.0904 38.1067 40.9704 37.6533 40.9704 37.14C40.9704 36.6267 41.0904 36.1733 41.3304 35.78C41.5704 35.3867 41.8937 35.0833 42.3004 34.87C42.7137 34.65 43.1671 34.54 43.6604 34.54C44.4404 34.54 45.0337 34.7967 45.4404 35.31V34.62H46.9204ZM43.9704 38.46C44.3837 38.46 44.7204 38.34 44.9804 38.1C45.2471 37.8533 45.3804 37.5333 45.3804 37.14C45.3804 36.7467 45.2471 36.43 44.9804 36.19C44.7204 35.9433 44.3837 35.82 43.9704 35.82C43.5571 35.82 43.2171 35.9433 42.9504 36.19C42.6837 36.43 42.5504 36.7467 42.5504 37.14C42.5504 37.5333 42.6837 37.8533 42.9504 38.1C43.2171 38.34 43.5571 38.46 43.9704 38.46Z" fill="#E5E5E5"/>
</g>
<defs>
<filter id="filter0_d_288_59" x="0.830078" y="0" width="50.0903" height="50.02" filterUnits="userSpaceOnUse" color-interpolation-filters="sRGB">
<feFlood flood-opacity="0" result="BackgroundImageFix"/>
<feColorMatrix in="SourceAlpha" type="matrix" values="0 0 0 0 0 0 0 0 0 0 0 0 0 0 0 0 0 0 127 0" result="hardAlpha"/>
<feOffset dy="4"/>
<feGaussianBlur stdDeviation="2"/>
<feComposite in2="hardAlpha" operator="out"/>
<feColorMatrix type="matrix" values="0 0 0 0 0 0 0 0 0 0 0 0 0 0 0 0 0 0 0.25 0"/>
<feBlend mode="normal" in2="BackgroundImageFix" result="effect1_dropShadow_288_59"/>
<feBlend mode="normal" in="SourceGraphic" in2="effect1_dropShadow_288_59" result="shape"/>
</filter>
</defs>
</svg>
